<svg width="172" height="390" viewBox="0 0 172 390" fill="none" xmlns="http://www.w3.org/2000/svg">
<g id="circulatory_system_overlay">
<path id="blood_vessels" class="organ-region" d="M78 56V40L90.5 61L94 44L98.5 73.5C103.333 73.5 115.2 76 124 86C135 98.5 142 138.5 144.5 143.5C147 148.5 161 210.5 150.5 191.5C142.1 176.3 136.333 149.833 134.5 138.5L124 111C126.5 102.667 127.8 85.2 113 82C98.2 78.8 94.1667 85.6667 94 89.5C93 116.333 91.6 171.4 94 177C96.4 182.6 107.667 201.667 113 210.5V258.5L116 272.5L120.5 306.5L108.5 371V276C107.5 258.667 105.4 221.3 105 210.5C104.5 197 89.5 186.5 85 185C81.4 183.8 75.8333 198.5 73.5 206L70 230L66.5 309.5L63 371C60.6667 351.667 55.4 312.3 53 309.5C50.6 306.7 58.6667 281 63 268.5C64.8333 247.667 68.1 206 66.5 206C64.9 206 78.1667 186.667 85 177V104H78C81.3334 100.667 86 92.4 78 86C70 79.6 60 85.6667 56 89.5L45.5 104L32.5 163.5L15.5001 206C14.0001 206 13.2001 197.5 22.0001 163.5L32.5 138.5C33.5 134.667 34.9 126.4 32.5 124C29.5 121 45.5 91.5 50 86C53.6 81.6 67.1667 78.1667 73.5 77L78 56Z" fill="#FF0000" fill-opacity="0.01"/>
<path id="heart" class="organ-region" d="M106 116H91.3812C88.5643 113.5 84.9657 108.382 86.2787 103.027C86.8585 100.662 88.3959 98.2518 91.3812 96H101.127L106 103.027V116Z" fill="#FF0000" fill-opacity="0.01"/>
</g>
</svg>
