<svg width="172" height="390" viewBox="0 0 172 390" fill="none" xmlns="http://www.w3.org/2000/svg">
<g id="immune">
<path id="whole_body" class="organ-region" d="M68.5 12.6003C71.7 7.00032 80.8333 4.60032 85 4.10032C89.1666 2.26699 98.8 1.40032 104 12.6003C110.5 26.6003 105.5 38.6003 105.5 42.6003C105.5 45.8003 101.167 51.6003 99 54.1003V62.6003L131.5 79.6003L138 98.1003L144.5 132.1L151 147.1L157.5 182.6L164 202.6L166.5 217.1L162 227.1L153 206.6L147 217.1L149 196.6L148 191.1L133.5 159.6L131.5 150.1L122 122.6L117.5 148.6L127.5 182.6L130 206.1L122 264.1V272.6L125.5 285.1L118.5 349.1V368.1L128 381.1L104.5 386.6L100.5 379.6L102.5 359.6L98 324.1L95.5 306.6V283.1L91 264.1L85.5 212.6L81.5 264.1L76 283.1V306.6L73.5 324.1L69 359.6L71 381.1L64 386.6L44 381.1L54 368.1V349.1L46.5 285.1L51 275.1V264.1L42 206.1L45 182.6L53.5 148.6L51.5 122.6L49.5 125.6L41 150.1L37.5 159.6L23 195.6L24.5 218.1L18.5 206.6L10 227.1L6 211.1L14 185.1L21 147.1L27.5 132.1L34.5 98.1003L41 79.6003L75.5 62.6003V54.1003L68.5 42.6003C67.1666 34.9337 65.3 18.2003 68.5 12.6003Z" fill="#FF0000" fill-opacity="0.01"/>
<g id="lymph_nodes" class="organ-region">
<circle id="lymph_nodes_2" cx="118" cy="103" r="2" fill="#FF0000" fill-opacity="0.01"/>
<circle id="lymph_nodes_3" cx="79" cy="107" r="2" fill="#FF0000" fill-opacity="0.01"/>
<circle id="lymph_nodes_4" cx="95" cy="116" r="2" fill="#FF0000" fill-opacity="0.01"/>
<circle id="lymph_nodes_5" cx="89" cy="141" r="2" fill="#FF0000" fill-opacity="0.01"/>
<ellipse id="lymph_nodes_6" cx="87" cy="149" rx="2" ry="5" fill="#FF0000" fill-opacity="0.01"/>
<circle id="lymph_nodes_7" cx="75" cy="171" r="2" fill="#FF0000" fill-opacity="0.01"/>
<circle id="lymph_nodes_8" cx="78" cy="199" r="2" fill="#FF0000" fill-opacity="0.01"/>
<circle id="lymph_nodes_9" cx="101" cy="199" r="2" fill="#FF0000" fill-opacity="0.01"/>
<circle id="lymph_nodes_10" cx="107" cy="202" r="2" fill="#FF0000" fill-opacity="0.01"/>
<circle id="lymph_nodes_11" cx="103" cy="206" r="2" fill="#FF0000" fill-opacity="0.01"/>
<circle id="lymph_nodes_12" cx="97" cy="207" r="2" fill="#FF0000" fill-opacity="0.01"/>
<circle id="lymph_nodes_13" cx="96" cy="202" r="2" fill="#FF0000" fill-opacity="0.01"/>
<circle id="lymph_nodes_14" cx="74" cy="208" r="2" fill="#FF0000" fill-opacity="0.01"/>
<circle id="lymph_nodes_15" cx="67" cy="274" r="2" fill="#FF0000" fill-opacity="0.01"/>
<circle id="lymph_nodes_16" cx="62" cy="276" r="2" fill="#FF0000" fill-opacity="0.01"/>
<circle id="lymph_nodes_17" cx="64" cy="269" r="2" fill="#FF0000" fill-opacity="0.01"/>
<circle id="lymph_nodes_18" cx="71" cy="269" r="2" fill="#FF0000" fill-opacity="0.01"/>
<circle id="lymph_nodes_19" cx="69" cy="255" r="2" fill="#FF0000" fill-opacity="0.01"/>
<circle id="lymph_nodes_20" cx="109" cy="274" r="2" fill="#FF0000" fill-opacity="0.01"/>
<circle id="lymph_nodes_21" cx="113" cy="278" r="2" fill="#FF0000" fill-opacity="0.01"/>
<circle id="lymph_nodes_22" cx="112" cy="268" r="2" fill="#FF0000" fill-opacity="0.01"/>
<circle id="lymph_nodes_23" cx="105" cy="269" r="2" fill="#FF0000" fill-opacity="0.01"/>
<circle id="lymph_nodes_24" cx="106" cy="255" r="2" fill="#FF0000" fill-opacity="0.01"/>
<circle id="lymph_nodes_25" cx="78" cy="193" r="2" fill="#FF0000" fill-opacity="0.01"/>
<circle id="lymph_nodes_26" cx="66" cy="194" r="2" fill="#FF0000" fill-opacity="0.01"/>
<circle id="lymph_nodes_27" cx="72" cy="198" r="2" fill="#FF0000" fill-opacity="0.01"/>
<circle id="lymph_nodes_28" cx="104" cy="186" r="2" fill="#FF0000" fill-opacity="0.01"/>
<circle id="lymph_nodes_29" cx="99" cy="185" r="2" fill="#FF0000" fill-opacity="0.01"/>
<circle id="lymph_nodes_30" cx="103" cy="173" r="2" fill="#FF0000" fill-opacity="0.01"/>
<circle id="lymph_nodes_31" cx="98" cy="173" r="2" fill="#FF0000" fill-opacity="0.01"/>
<circle id="lymph_nodes_32" cx="73" cy="185" r="2" fill="#FF0000" fill-opacity="0.01"/>
<circle id="lymph_nodes_33" cx="75" cy="180" r="2" fill="#FF0000" fill-opacity="0.01"/>
<circle id="lymph_nodes_34" cx="69" cy="179" r="2" fill="#FF0000" fill-opacity="0.01"/>
<circle id="lymph_nodes_35" cx="96" cy="167" r="2" fill="#FF0000" fill-opacity="0.01"/>
<circle id="lymph_nodes_36" cx="101" cy="144" r="2" fill="#FF0000" fill-opacity="0.01"/>
<circle id="lymph_nodes_37" cx="104" cy="152" r="2" fill="#FF0000" fill-opacity="0.01"/>
<circle id="lymph_nodes_38" cx="97" cy="151" r="2" fill="#FF0000" fill-opacity="0.01"/>
<circle id="lymph_nodes_39" cx="78" cy="159" r="2" fill="#FF0000" fill-opacity="0.01"/>
<circle id="lymph_nodes_40" cx="79" cy="153" r="2" fill="#FF0000" fill-opacity="0.01"/>
<circle id="lymph_nodes_41" cx="75" cy="148" r="2" fill="#FF0000" fill-opacity="0.01"/>
<circle id="lymph_nodes_42" cx="96" cy="126" r="2" fill="#FF0000" fill-opacity="0.01"/>
<circle id="lymph_nodes_43" cx="79" cy="122" r="2" fill="#FF0000" fill-opacity="0.01"/>
<circle id="lymph_nodes_44" cx="93" cy="135" r="2" fill="#FF0000" fill-opacity="0.01"/>
<circle id="lymph_nodes_45" cx="84" cy="116" r="2" fill="#FF0000" fill-opacity="0.01"/>
<circle id="lymph_nodes_46" cx="79" cy="116" r="2" fill="#FF0000" fill-opacity="0.01"/>
<circle id="lymph_nodes_47" cx="51" cy="114" r="2" fill="#FF0000" fill-opacity="0.01"/>
<circle id="lymph_nodes_48" cx="56" cy="106" r="2" fill="#FF0000" fill-opacity="0.01"/>
<circle id="lymph_nodes_49" cx="34" cy="147" r="2" fill="#FF0000" fill-opacity="0.01"/>
<circle id="lymph_nodes_50" cx="39" cy="146" r="2" fill="#FF0000" fill-opacity="0.01"/>
<circle id="lymph_nodes_51" cx="37" cy="141" r="2" fill="#FF0000" fill-opacity="0.01"/>
<circle id="lymph_nodes_52" cx="50" cy="109" r="2" fill="#FF0000" fill-opacity="0.01"/>
<circle id="lymph_nodes_53" cx="62" cy="114" r="2" fill="#FF0000" fill-opacity="0.01"/>
<circle id="lymph_nodes_54" cx="58" cy="115" r="2" fill="#FF0000" fill-opacity="0.01"/>
<circle id="lymph_nodes_55" cx="46" cy="108" r="2" fill="#FF0000" fill-opacity="0.01"/>
<circle id="lymph_nodes_56" cx="49" cy="104" r="2" fill="#FF0000" fill-opacity="0.01"/>
<circle id="lymph_nodes_57" cx="50" cy="94" r="2" fill="#FF0000" fill-opacity="0.01"/>
<circle id="lymph_nodes_58" cx="58" cy="94" r="2" fill="#FF0000" fill-opacity="0.01"/>
<circle id="lymph_nodes_59" cx="49" cy="99" r="2" fill="#FF0000" fill-opacity="0.01"/>
<circle id="lymph_nodes_60" cx="53" cy="101" r="2" fill="#FF0000" fill-opacity="0.01"/>
<circle id="lymph_nodes_61" cx="92" cy="100" r="2" fill="#FF0000" fill-opacity="0.01"/>
<circle id="lymph_nodes_62" cx="81" cy="94" r="2" fill="#FF0000" fill-opacity="0.01"/>
<circle id="lymph_nodes_63" cx="84" cy="106" r="2" fill="#FF0000" fill-opacity="0.01"/>
<circle id="lymph_nodes_64" cx="99" cy="91" r="2" fill="#FF0000" fill-opacity="0.01"/>
<circle id="lymph_nodes_65" cx="97" cy="54" r="2" fill="#FF0000" fill-opacity="0.01"/>
<circle id="lymph_nodes_66" cx="97" cy="62" r="2" fill="#FF0000" fill-opacity="0.01"/>
<circle id="lymph_nodes_67" cx="77" cy="55" r="2" fill="#FF0000" fill-opacity="0.01"/>
<circle id="lymph_nodes_68" cx="79" cy="61" r="2" fill="#FF0000" fill-opacity="0.01"/>
<circle id="lymph_nodes_69" cx="76" cy="68" r="2" fill="#FF0000" fill-opacity="0.01"/>
<circle id="lymph_nodes_70" cx="100" cy="71" r="2" fill="#FF0000" fill-opacity="0.01"/>
<circle id="lymph_nodes_71" cx="102" cy="78" r="2" fill="#FF0000" fill-opacity="0.01"/>
<circle id="lymph_nodes_72" cx="59" cy="88" r="2" fill="#FF0000" fill-opacity="0.01"/>
<circle id="lymph_nodes_73" cx="79" cy="87" r="2" fill="#FF0000" fill-opacity="0.01"/>
<circle id="lymph_nodes_74" cx="100" cy="96" r="2" fill="#FF0000" fill-opacity="0.01"/>
<circle id="lymph_nodes_75" cx="95" cy="93" r="2" fill="#FF0000" fill-opacity="0.01"/>
<circle id="lymph_nodes_76" cx="117" cy="117" r="2" fill="#FF0000" fill-opacity="0.01"/>
<circle id="lymph_nodes_77" cx="115" cy="111" r="2" fill="#FF0000" fill-opacity="0.01"/>
<circle id="lymph_nodes_78" cx="122" cy="115" r="2" fill="#FF0000" fill-opacity="0.01"/>
<circle id="lymph_nodes_79" cx="106" cy="194" r="2" fill="#FF0000" fill-opacity="0.01"/>
<circle id="lymph_nodes_80" cx="114" cy="192" r="2" fill="#FF0000" fill-opacity="0.01"/>
<circle id="lymph_nodes_81" cx="83" cy="90" r="2" fill="#FF0000" fill-opacity="0.01"/>
<circle id="lymph_nodes_82" cx="95" cy="88" r="2" fill="#FF0000" fill-opacity="0.01"/>
<circle id="lymph_nodes_83" cx="139" cy="142" r="2" fill="#FF0000" fill-opacity="0.01"/>
<circle id="lymph_nodes_84" cx="134" cy="140" r="2" fill="#FF0000" fill-opacity="0.01"/>
<circle id="lymph_nodes_85" cx="137" cy="137" r="2" fill="#FF0000" fill-opacity="0.01"/>
<circle id="lymph_nodes_86" cx="127" cy="110" r="2" fill="#FF0000" fill-opacity="0.01"/>
<circle id="lymph_nodes_87" cx="123" cy="106" r="2" fill="#FF0000" fill-opacity="0.01"/>
<circle id="lymph_nodes_88" cx="122" cy="100" r="2" fill="#FF0000" fill-opacity="0.01"/>
<circle id="lymph_nodes_89" cx="126" cy="98" r="2" fill="#FF0000" fill-opacity="0.01"/>
<circle id="lymph_nodes_90" cx="122" cy="94" r="2" fill="#FF0000" fill-opacity="0.01"/>
<circle id="lymph_nodes_91" cx="121" cy="89" r="2" fill="#FF0000" fill-opacity="0.01"/>
<path id="lymph_nodes_92" d="M79 91C79 92.1046 78.1046 93 77 93C75.8954 93 75 92.1046 75 91C75 89.8954 75.8954 89 77 89C78.1046 89 79 89.8954 79 91Z" fill="#FF0000" fill-opacity="0.01"/>
</g>
<ellipse id="spleen" class="organ-region" cx="106.189" cy="144.133" rx="6" ry="10" transform="rotate(-13.6384 106.189 144.133)" fill="#FF0000" fill-opacity="0.01"/>
</g>
</svg>
