<svg width="172" height="390" viewBox="0 0 172 390" fill="none" xmlns="http://www.w3.org/2000/svg">
<g id="integumentary_system_overlay">
<ellipse id="scalp" class="organ-region" cx="89.5" cy="14.5" rx="19.5" ry="9.5" fill="#FF0000" fill-opacity="0.01"/>
<g id="nails" class="organ-region">
<ellipse id="Ellipse 1" cx="158.951" cy="217.238" rx="12.0849" ry="6.99985" transform="rotate(27.48 158.951 217.238)" fill="#FF0000" fill-opacity="0.01"/>
<ellipse id="Ellipse 2" cx="12.0849" cy="6.99985" rx="12.0849" ry="6.99985" transform="matrix(-0.887172 0.46144 0.46144 0.887172 25.4427 205)" fill="#FF0000" fill-opacity="0.01"/>
</g>
<path id="skin" class="organ-region" d="M71 11C74.2 5.4 83.3333 3 87.5 2.5C91.6666 0.666666 101.3 -0.2 106.5 11C113 25 108 37 108 41C108 44.2 103.667 50 101.5 52.5V61L134 78L140.5 96.5L147 130.5L153.5 145.5L160 181L166.5 201L169 215.5L164.5 225.5L155.5 205L149.5 215.5L151.5 195L150.5 189.5L136 158L134 148.5L124.5 121L120 147L130 181L132.5 204.5L124.5 262.5V271L128 283.5L121 347.5V366.5L130.5 379.5L107 385L103 378L105 358L100.5 322.5L98 305V281.5L93.5 262.5L88 211L84 262.5L78.5 281.5V305L76 322.5L71.5 358L73.5 379.5L66.5 385L46.5 379.5L56.5 366.5V347.5L49 283.5L53.5 273.5V262.5L44.5 204.5L47.5 181L56 147L54 121L52 124L43.5 148.5L40 158L25.5 194L27 216.5L21 205L12.5 225.5L8.5 209.5L16.5 183.5L23.5 145.5L30 130.5L37 96.5L43.5 78L78 61V52.5L71 41C69.6666 33.3333 67.8 16.6 71 11Z" fill="#FF0000" fill-opacity="0.01"/>
</g>
</svg>
