<svg width="172" height="390" viewBox="0 0 172 390" fill="none" xmlns="http://www.w3.org/2000/svg">
<g id="lymphatic_system_overlay">
<g id="lymph_nodes" class="organ-region">
<circle id="lymph_nodes_2" cx="117" cy="104" r="2" fill="#FF0000" fill-opacity="0.01"/>
<circle id="lymph_nodes_3" cx="78" cy="108" r="2" fill="#FF0000" fill-opacity="0.01"/>
<circle id="lymph_nodes_4" cx="94" cy="117" r="2" fill="#FF0000" fill-opacity="0.01"/>
<circle id="lymph_nodes_5" cx="88" cy="142" r="2" fill="#FF0000" fill-opacity="0.01"/>
<ellipse id="lymph_nodes_6" cx="86" cy="150" rx="2" ry="5" fill="#FF0000" fill-opacity="0.01"/>
<circle id="lymph_nodes_7" cx="74" cy="172" r="2" fill="#FF0000" fill-opacity="0.01"/>
<circle id="lymph_nodes_8" cx="77" cy="200" r="2" fill="#FF0000" fill-opacity="0.01"/>
<circle id="lymph_nodes_9" cx="100" cy="200" r="2" fill="#FF0000" fill-opacity="0.01"/>
<circle id="lymph_nodes_10" cx="106" cy="203" r="2" fill="#FF0000" fill-opacity="0.01"/>
<circle id="lymph_nodes_11" cx="102" cy="207" r="2" fill="#FF0000" fill-opacity="0.01"/>
<circle id="lymph_nodes_12" cx="96" cy="208" r="2" fill="#FF0000" fill-opacity="0.01"/>
<circle id="lymph_nodes_13" cx="95" cy="203" r="2" fill="#FF0000" fill-opacity="0.01"/>
<circle id="lymph_nodes_14" cx="73" cy="209" r="2" fill="#FF0000" fill-opacity="0.01"/>
<circle id="lymph_nodes_15" cx="66" cy="275" r="2" fill="#FF0000" fill-opacity="0.01"/>
<circle id="lymph_nodes_16" cx="61" cy="277" r="2" fill="#FF0000" fill-opacity="0.01"/>
<circle id="lymph_nodes_17" cx="63" cy="270" r="2" fill="#FF0000" fill-opacity="0.01"/>
<circle id="lymph_nodes_18" cx="70" cy="270" r="2" fill="#FF0000" fill-opacity="0.01"/>
<circle id="lymph_nodes_19" cx="68" cy="256" r="2" fill="#FF0000" fill-opacity="0.01"/>
<circle id="lymph_nodes_20" cx="108" cy="275" r="2" fill="#FF0000" fill-opacity="0.01"/>
<circle id="lymph_nodes_21" cx="112" cy="279" r="2" fill="#FF0000" fill-opacity="0.01"/>
<circle id="lymph_nodes_22" cx="111" cy="269" r="2" fill="#FF0000" fill-opacity="0.01"/>
<circle id="lymph_nodes_23" cx="104" cy="270" r="2" fill="#FF0000" fill-opacity="0.01"/>
<circle id="lymph_nodes_24" cx="105" cy="256" r="2" fill="#FF0000" fill-opacity="0.01"/>
<circle id="lymph_nodes_25" cx="77" cy="194" r="2" fill="#FF0000" fill-opacity="0.01"/>
<circle id="lymph_nodes_26" cx="65" cy="195" r="2" fill="#FF0000" fill-opacity="0.01"/>
<circle id="lymph_nodes_27" cx="71" cy="199" r="2" fill="#FF0000" fill-opacity="0.01"/>
<circle id="lymph_nodes_28" cx="103" cy="187" r="2" fill="#FF0000" fill-opacity="0.01"/>
<circle id="lymph_nodes_29" cx="98" cy="186" r="2" fill="#FF0000" fill-opacity="0.01"/>
<circle id="lymph_nodes_30" cx="102" cy="174" r="2" fill="#FF0000" fill-opacity="0.01"/>
<circle id="lymph_nodes_31" cx="97" cy="174" r="2" fill="#FF0000" fill-opacity="0.01"/>
<circle id="lymph_nodes_32" cx="72" cy="186" r="2" fill="#FF0000" fill-opacity="0.01"/>
<circle id="lymph_nodes_33" cx="74" cy="181" r="2" fill="#FF0000" fill-opacity="0.01"/>
<circle id="lymph_nodes_34" cx="68" cy="180" r="2" fill="#FF0000" fill-opacity="0.01"/>
<circle id="lymph_nodes_35" cx="95" cy="168" r="2" fill="#FF0000" fill-opacity="0.01"/>
<circle id="lymph_nodes_36" cx="100" cy="145" r="2" fill="#FF0000" fill-opacity="0.01"/>
<circle id="lymph_nodes_37" cx="103" cy="153" r="2" fill="#FF0000" fill-opacity="0.01"/>
<circle id="lymph_nodes_38" cx="96" cy="152" r="2" fill="#FF0000" fill-opacity="0.01"/>
<circle id="lymph_nodes_39" cx="77" cy="160" r="2" fill="#FF0000" fill-opacity="0.01"/>
<circle id="lymph_nodes_40" cx="78" cy="154" r="2" fill="#FF0000" fill-opacity="0.01"/>
<circle id="lymph_nodes_41" cx="74" cy="149" r="2" fill="#FF0000" fill-opacity="0.01"/>
<circle id="lymph_nodes_42" cx="95" cy="127" r="2" fill="#FF0000" fill-opacity="0.01"/>
<circle id="lymph_nodes_43" cx="78" cy="123" r="2" fill="#FF0000" fill-opacity="0.01"/>
<circle id="lymph_nodes_44" cx="92" cy="136" r="2" fill="#FF0000" fill-opacity="0.01"/>
<circle id="lymph_nodes_45" cx="83" cy="117" r="2" fill="#FF0000" fill-opacity="0.01"/>
<circle id="lymph_nodes_46" cx="78" cy="117" r="2" fill="#FF0000" fill-opacity="0.01"/>
<circle id="lymph_nodes_47" cx="50" cy="115" r="2" fill="#FF0000" fill-opacity="0.01"/>
<circle id="lymph_nodes_48" cx="55" cy="107" r="2" fill="#FF0000" fill-opacity="0.01"/>
<circle id="lymph_nodes_49" cx="33" cy="148" r="2" fill="#FF0000" fill-opacity="0.01"/>
<circle id="lymph_nodes_50" cx="38" cy="147" r="2" fill="#FF0000" fill-opacity="0.01"/>
<circle id="lymph_nodes_51" cx="36" cy="142" r="2" fill="#FF0000" fill-opacity="0.01"/>
<circle id="lymph_nodes_52" cx="49" cy="110" r="2" fill="#FF0000" fill-opacity="0.01"/>
<circle id="lymph_nodes_53" cx="61" cy="115" r="2" fill="#FF0000" fill-opacity="0.01"/>
<circle id="lymph_nodes_54" cx="57" cy="116" r="2" fill="#FF0000" fill-opacity="0.01"/>
<circle id="lymph_nodes_55" cx="45" cy="109" r="2" fill="#FF0000" fill-opacity="0.01"/>
<circle id="lymph_nodes_56" cx="48" cy="105" r="2" fill="#FF0000" fill-opacity="0.01"/>
<circle id="lymph_nodes_57" cx="49" cy="95" r="2" fill="#FF0000" fill-opacity="0.01"/>
<circle id="lymph_nodes_58" cx="57" cy="95" r="2" fill="#FF0000" fill-opacity="0.01"/>
<circle id="lymph_nodes_59" cx="48" cy="100" r="2" fill="#FF0000" fill-opacity="0.01"/>
<circle id="lymph_nodes_60" cx="52" cy="102" r="2" fill="#FF0000" fill-opacity="0.01"/>
<circle id="lymph_nodes_61" cx="91" cy="101" r="2" fill="#FF0000" fill-opacity="0.01"/>
<circle id="lymph_nodes_62" cx="80" cy="95" r="2" fill="#FF0000" fill-opacity="0.01"/>
<circle id="lymph_nodes_63" cx="83" cy="107" r="2" fill="#FF0000" fill-opacity="0.01"/>
<circle id="lymph_nodes_64" cx="98" cy="92" r="2" fill="#FF0000" fill-opacity="0.01"/>
<circle id="lymph_nodes_65" cx="96" cy="55" r="2" fill="#FF0000" fill-opacity="0.01"/>
<circle id="lymph_nodes_66" cx="96" cy="63" r="2" fill="#FF0000" fill-opacity="0.01"/>
<circle id="lymph_nodes_67" cx="76" cy="56" r="2" fill="#FF0000" fill-opacity="0.01"/>
<circle id="lymph_nodes_68" cx="78" cy="62" r="2" fill="#FF0000" fill-opacity="0.01"/>
<circle id="lymph_nodes_69" cx="75" cy="69" r="2" fill="#FF0000" fill-opacity="0.01"/>
<circle id="lymph_nodes_70" cx="99" cy="72" r="2" fill="#FF0000" fill-opacity="0.01"/>
<circle id="lymph_nodes_71" cx="101" cy="79" r="2" fill="#FF0000" fill-opacity="0.01"/>
<circle id="lymph_nodes_72" cx="58" cy="89" r="2" fill="#FF0000" fill-opacity="0.01"/>
<circle id="lymph_nodes_73" cx="78" cy="88" r="2" fill="#FF0000" fill-opacity="0.01"/>
<circle id="lymph_nodes_74" cx="99" cy="97" r="2" fill="#FF0000" fill-opacity="0.01"/>
<circle id="lymph_nodes_75" cx="94" cy="94" r="2" fill="#FF0000" fill-opacity="0.01"/>
<circle id="lymph_nodes_76" cx="116" cy="118" r="2" fill="#FF0000" fill-opacity="0.01"/>
<circle id="lymph_nodes_77" cx="114" cy="112" r="2" fill="#FF0000" fill-opacity="0.01"/>
<circle id="lymph_nodes_78" cx="121" cy="116" r="2" fill="#FF0000" fill-opacity="0.01"/>
<circle id="lymph_nodes_79" cx="105" cy="195" r="2" fill="#FF0000" fill-opacity="0.01"/>
<circle id="lymph_nodes_80" cx="113" cy="193" r="2" fill="#FF0000" fill-opacity="0.01"/>
<circle id="lymph_nodes_81" cx="82" cy="91" r="2" fill="#FF0000" fill-opacity="0.01"/>
<circle id="lymph_nodes_82" cx="94" cy="89" r="2" fill="#FF0000" fill-opacity="0.01"/>
<circle id="lymph_nodes_83" cx="138" cy="143" r="2" fill="#FF0000" fill-opacity="0.01"/>
<circle id="lymph_nodes_84" cx="133" cy="141" r="2" fill="#FF0000" fill-opacity="0.01"/>
<circle id="lymph_nodes_85" cx="136" cy="138" r="2" fill="#FF0000" fill-opacity="0.01"/>
<circle id="lymph_nodes_86" cx="126" cy="111" r="2" fill="#FF0000" fill-opacity="0.01"/>
<circle id="lymph_nodes_87" cx="122" cy="107" r="2" fill="#FF0000" fill-opacity="0.01"/>
<circle id="lymph_nodes_88" cx="121" cy="101" r="2" fill="#FF0000" fill-opacity="0.01"/>
<circle id="lymph_nodes_89" cx="125" cy="99" r="2" fill="#FF0000" fill-opacity="0.01"/>
<circle id="lymph_nodes_90" cx="121" cy="95" r="2" fill="#FF0000" fill-opacity="0.01"/>
<circle id="lymph_nodes_91" cx="120" cy="90" r="2" fill="#FF0000" fill-opacity="0.01"/>
<path id="lymph_nodes_92" d="M78 92C78 93.1046 77.1046 94 76 94C74.8954 94 74 93.1046 74 92C74 90.8954 74.8954 90 76 90C77.1046 90 78 90.8954 78 92Z" fill="#FF0000" fill-opacity="0.01"/>
</g>
<path id="lymph_vessels" class="organ-region" d="M76.7243 61.5347V48L87.9014 65.7644L91.0311 51.3837L95.0549 76.3384C99.3767 76.3384 109.988 78.4532 117.856 86.9124C127.692 97.4864 133.952 131.323 136.187 135.553C138.422 139.782 150.941 192.23 141.552 176.157C134.041 163.299 128.885 140.91 127.245 131.323L117.856 108.06C120.092 101.011 121.254 86.2356 108.02 83.5287C94.7866 80.8218 91.1801 86.6304 91.0311 89.8731C90.1369 112.572 88.885 159.154 91.0311 163.891C93.1771 168.628 103.251 184.757 108.02 192.23V232.834L110.703 244.677L114.727 273.438L103.997 328V247.637C103.102 232.975 101.225 201.366 100.867 192.23C100.42 180.81 87.0073 171.927 82.9835 170.659C79.7644 169.644 74.7869 182.079 72.7005 188.423L69.5708 208.725L66.4412 275.976L63.3116 328C61.2252 311.646 56.5158 278.344 54.3698 275.976C52.2238 273.607 59.4368 251.867 63.3116 241.293C64.9509 223.67 67.8719 188.423 66.4412 188.423C65.0105 188.423 76.8733 172.068 82.9835 163.891V102.139H76.7243C79.7048 99.3192 83.8777 92.3263 76.7243 86.9124C69.5709 81.4985 60.6291 86.6304 57.0523 89.8731L47.6635 102.139L36.0392 152.471L20.8382 188.423C19.497 188.423 18.7816 181.233 26.6504 152.471L36.0392 131.323C36.9334 128.081 38.1852 121.088 36.0392 119.057C33.3567 116.52 47.6635 91.565 51.6873 86.9124C54.9063 83.1903 67.0373 80.286 72.7005 79.2991L76.7243 61.5347Z" fill="#FF0000" fill-opacity="0.01"/>
</g>
</svg>
