<svg width="172" height="390" viewBox="0 0 172 390" fill="none" xmlns="http://www.w3.org/2000/svg">
<g id="respiratory_system_overlay">
<g id="lungs" class="organ-region">
<path id="Vector 1" d="M59.893 91.8904C63.093 80.6904 73.893 77.5571 78.893 77.3904C79.393 76.2237 80.4931 76.9904 80.8931 89.3904C81.2931 101.79 79.0597 117.557 77.8931 123.89C75.3931 124.724 69.2931 126.59 64.8931 127.39C59.3931 128.39 55.893 133.39 54.393 120.89C52.893 108.39 55.893 105.89 59.893 91.8904Z" fill="#FF0000" fill-opacity="0.01"/>
<path id="Vector 2" d="M112.047 91.8904C108.847 80.6904 98.0474 77.5571 93.0474 77.3904C92.5474 76.2237 91.4474 76.9904 91.0474 89.3904C90.6474 101.79 92.8807 117.557 94.0474 123.89C96.5474 124.724 102.647 126.59 107.047 127.39C112.547 128.39 116.047 133.39 117.547 120.89C119.047 108.39 116.047 105.89 112.047 91.8904Z" fill="#FF0000" fill-opacity="0.01"/>
</g>
<rect id="airway" class="organ-region" x="83" y="64" width="5" height="35" fill="#FF0000" fill-opacity="0.01"/>
<path id="throat" class="organ-region" d="M82.5 63.5L81 54H89.5L88 63.5H82.5Z" fill="#FF0000" fill-opacity="0.01"/>
<path id="nose" class="organ-region" d="M80 45L82.5 40.5L85.5 42L88 40.5L89.5 45L92.5 46C92.5 48.8 89.5 51.8333 88 53C87.1667 52.8333 84.9 52.6 82.5 53C80.1 53.4 78.1667 47.8333 77.5 45H80Z" fill="#FF0000" fill-opacity="0.01"/>
<path id="sinuses" class="organ-region" d="M78.9999 31L83.9999 28L85 36.5H87V28L92 31.5L88.5 33.5V37.5C90.1667 38.8333 93.3 41.9 92.5 43.5C91.7 45.1 88.5 42.1667 87 40.5L85 41.5L82.4999 40.5C81.8333 42.1667 79.8999 45.1 77.4999 43.5C75.0999 41.9 79.8333 38.8333 82.4999 37.5V33.5L78.9999 31Z" fill="#FF0000" fill-opacity="0.01"/>
</g>
</svg>
